<svg width="100" height="92" viewBox="0 0 100 92" fill="none" xmlns="http://www.w3.org/2000/svg">
<g filter="url(#filter0_d_203_16)">
<path fill-rule="evenodd" clip-rule="evenodd" d="M73.8858 2.1858C75.56 0.31522 78.4336 0.156032 80.3042 1.83024C92.3859 12.6437 100 28.3725 100 45.8737C100 68.4673 81.6845 86.7828 59.0909 86.7828C36.4974 86.7828 18.1818 68.4673 18.1818 45.8737C18.1818 33.3218 28.3572 23.1464 40.9091 23.1464C53.4608 23.1464 63.6364 33.3218 63.6364 45.8737C63.6364 48.3841 61.6013 50.4192 59.0909 50.4192C56.5805 50.4192 54.5455 48.3841 54.5455 45.8737C54.5455 38.3426 48.4401 32.2374 40.9091 32.2374C33.3779 32.2374 27.2727 38.3426 27.2727 45.8737C27.2727 63.4465 41.5182 77.6919 59.0909 77.6919C76.6637 77.6919 90.9091 63.4465 90.9091 45.8737C90.9091 31.0658 84.4777 17.766 74.2413 8.6042C72.3707 6.92999 72.2115 4.05637 73.8858 2.1858Z" fill="white"/>
</g>
<g filter="url(#filter1_d_203_16)">
<path fill-rule="evenodd" clip-rule="evenodd" d="M0 45.8735C0 23.2801 18.3156 4.96445 40.9091 4.96445C63.5027 4.96445 81.8182 23.2801 81.8182 45.8735C81.8182 58.4253 71.6427 68.6008 59.0909 68.6008C46.5392 68.6008 36.3636 58.4253 36.3636 45.8735C36.3636 43.3632 38.3987 41.3281 40.9091 41.3281C43.4195 41.3281 45.4545 43.3632 45.4545 45.8735C45.4545 53.4045 51.5599 59.5099 59.0909 59.5099C66.6219 59.5099 72.7273 53.4045 72.7273 45.8735C72.7273 28.3008 58.4819 14.0554 40.9091 14.0554C23.3364 14.0554 9.09091 28.3008 9.09091 45.8735C9.09091 60.8067 15.6316 74.2064 26.0194 83.3747C27.9015 85.0359 28.0806 87.9083 26.4194 89.7905C24.7582 91.6726 21.8858 91.8517 20.0036 90.1906C7.74358 79.3698 0 63.5231 0 45.8735Z" fill="white"/>
</g>
<defs>
<filter id="filter0_d_203_16" x="14.1818" y="0.671722" width="89.8182" height="94.1111" filterUnits="userSpaceOnUse" color-interpolation-filters="sRGB">
<feFlood flood-opacity="0" result="BackgroundImageFix"/>
<feColorMatrix in="SourceAlpha" type="matrix" values="0 0 0 0 0 0 0 0 0 0 0 0 0 0 0 0 0 0 127 0" result="hardAlpha"/>
<feOffset dy="4"/>
<feGaussianBlur stdDeviation="2"/>
<feComposite in2="hardAlpha" operator="out"/>
<feColorMatrix type="matrix" values="0 0 0 0 0 0 0 0 0 0 0 0 0 0 0 0 0 0 0.25 0"/>
<feBlend mode="normal" in2="BackgroundImageFix" result="effect1_dropShadow_203_16"/>
<feBlend mode="normal" in="SourceGraphic" in2="effect1_dropShadow_203_16" result="shape"/>
</filter>
<filter id="filter1_d_203_16" x="-4" y="4.96445" width="89.8182" height="94.3637" filterUnits="userSpaceOnUse" color-interpolation-filters="sRGB">
<feFlood flood-opacity="0" result="BackgroundImageFix"/>
<feColorMatrix in="SourceAlpha" type="matrix" values="0 0 0 0 0 0 0 0 0 0 0 0 0 0 0 0 0 0 127 0" result="hardAlpha"/>
<feOffset dy="4"/>
<feGaussianBlur stdDeviation="2"/>
<feComposite in2="hardAlpha" operator="out"/>
<feColorMatrix type="matrix" values="0 0 0 0 0 0 0 0 0 0 0 0 0 0 0 0 0 0 0.25 0"/>
<feBlend mode="normal" in2="BackgroundImageFix" result="effect1_dropShadow_203_16"/>
<feBlend mode="normal" in="SourceGraphic" in2="effect1_dropShadow_203_16" result="shape"/>
</filter>
</defs>
</svg>
