<svg version="1.2" xmlns="http://www.w3.org/2000/svg" viewBox="0 0 1548 1479" width="1548" height="1479">
	<title>clear-svg</title>
	<style>
		.s0 { fill: #ffffff } 
	</style>
	<path id="Layer" fill-rule="evenodd" class="s0" d="m515.5 110.1c-26.7-20.4-31.8-58.7-11.4-85.4 20.4-26.7 58.7-31.8 85.4-11.4 13.2 9.3 22.1 23.5 24.7 39.4 5.6 33.2-16.7 64.6-49.8 70.3q-5.1 0.8-10.3 0.8c-12.6 0-24.9-3.9-35.1-11.2q-1.8-1.2-3.5-2.5zm423.6-75.2c15.2-30.4 52.1-42.8 82.5-27.6 14.4 7.3 25.3 19.9 30.5 35.2 10.8 32.2-6.5 67.1-38.7 78-6.2 2.1-12.8 3.3-19.4 3.3-9.5 0-18.8-2.2-27.3-6.5-30.4-15.1-42.7-52.1-27.6-82.4zm429.8 227.9c15.5 4.9 28.4 15.8 35.9 30.2 15.6 30.1 3.9 67.1-26.2 82.8-8.8 4.6-18.5 7.1-28.4 7.1-6.3-0.1-12.5-1-18.5-2.8-32.4-10.2-50.4-44.7-40.2-77.1 10.2-32.4 44.7-50.4 77.1-40.2zm178.3 485.1c-2.4 16.1-11.1 30.6-24.1 40.4-27.2 20.3-65.7 14.7-86.1-12.5-20.3-27.2-14.7-65.7 12.5-86.1 27.2-20.3 65.7-14.7 86.1 12.5 9.8 13.1 14 29.5 11.6 45.7zm-196.7 347.3c33 1.1 59.7 27.5 61.2 60.5 1.5 35-25.5 64.6-60.5 66.2h-1.2c-33.1-1.1-59.7-27.5-61.2-60.5-1.6-35 25.5-64.6 60.5-66.2zm-295.9 311.8c2.8 16.1-1 32.6-10.4 45.9-19.7 27.7-58 34.3-85.8 14.7-27.7-19.7-34.2-58.1-14.6-85.8 19.6-27.7 58-34.3 85.8-14.6 13.3 9.4 22.3 23.7 25 39.8zm-520.6-47q2.7-1.1 5.5-1.9c32.2-9.1 65.6 9.5 74.7 41.6 9.1 32.2-9.5 65.6-41.6 74.7-6.2 2.1-12.6 3.1-19.1 3.2-25.7-0.2-48.4-16.7-56.7-41-10.8-31.6 6.1-65.9 37.6-76.7zm-274.7-201.8c0.2 34.1-27.4 61.9-61.4 62-6.2 0-12.4-1-18.3-2.8-32.5-10.2-50.7-44.7-40.5-77.2 10.2-32.5 44.8-50.7 77.3-40.5 25.4 8.1 42.8 31.8 42.9 58.5zm-148-456q0 0.1 0.1 0.1c20.2 27.3 14.5 65.9-12.8 86.1-27.2 20.2-65.8 14.5-86-12.7-20.3-27.3-14.6-65.8 12.7-86.1 27.3-20.2 65.7-14.6 86 12.6zm27.4-378.1c-1.5-33.9 24.8-62.7 58.8-64.2h0.7c32.1 1.1 57.9 26.7 59.4 58.7 1.5 34-24.8 62.8-58.8 64.3h-0.6c-32.2-1.1-58-26.7-59.5-58.8zm242.9-88.7c9.5-13.2 23.7-22.2 39.7-24.9 33.5-5.8 65.3 16.7 71.1 50.2 5.7 33.5-16.7 65.3-50.2 71q-5.2 0.9-10.4 0.9c-12.8 0-25.2-3.9-35.6-11.3-27.7-19.7-34.2-58.1-14.6-85.9zm333.1-59.5q-0.1-0.2-0.1-0.3c-10.7-32.2 6.8-67 39-77.6 32.2-10.7 66.9 6.8 77.6 39 10.6 32.2-6.9 66.9-39.1 77.6-6.2 2.1-12.7 3.2-19.3 3.3-9.5 0-18.7-2.3-27.2-6.5-14.7-7.2-25.8-20-30.9-35.5zm334.1 92.5c0-33.9 27.6-61.5 61.5-61.4 34 0 61.5 27.5 61.5 61.5 0 34-27.6 61.5-61.5 61.5-6.3 0-12.5-1-18.4-2.8-25.7-8.1-43.1-31.9-43.1-58.8zm212.7 289.1c0-34 27.5-61.5 61.5-61.5 34 0 61.5 27.6 61.5 61.5 0 34-27.5 61.5-61.5 61.5q-4.6 0.1-9.1-0.6c-30.1-4.6-52.4-30.4-52.4-60.9zm61.5 424.2c-32.1-1.1-58-26.7-59.4-58.8-1.6-34 24.7-62.8 58.7-64.3h0.7c32.1 1.1 58 26.7 59.4 58.8 1.5 34-24.8 62.7-58.7 64.3zm-162.5 265.1c-19.7 27.7-58.1 34.2-85.8 14.6-27.7-19.7-34.2-58.1-14.6-85.8 19.7-27.7 58.1-34.3 85.8-14.6 27.7 19.7 34.2 58.1 14.6 85.8zm-406.4 15.6c30.7-8.7 63 7.3 74.7 37.1 12.5 31.8-3.2 67.9-35.1 80.4-6.3 2.1-12.9 3.2-19.5 3.2-26.4-0.2-49.8-17-58.3-42-11.1-32.4 6.3-67.7 38.7-78.8zm-259-30.2c-8.1 25.7-31.9 43.2-58.8 43.2-6.2 0-12.3-1-18.2-2.8-32.5-10.1-50.5-44.6-40.4-77 10.2-32.5 44.7-50.5 77.1-40.4 15.6 4.8 28.6 15.6 36.1 30.1 7.6 14.4 9.1 31.4 4.2 46.9zm-220.6-348.2c20.1 26.8 14.6 64.8-12.3 84.9-10.4 7.8-23 12.1-36.1 12.1q-4.4-0.1-8.9-0.7-1.8-0.2-3.6-0.6c-33-5.8-55-37.3-49.1-70.3 5.9-33 37.4-55 70.4-49.1 15.8 2.3 30 10.8 39.6 23.7zm10-329.2c1.5 33.9-24.8 62.7-58.7 64.2h-0.7c-32.1-1.1-58-26.6-59.4-58.7-1.6-34 24.7-62.8 58.7-64.3h0.7c32.1 1.1 58 26.7 59.4 58.8zm344.9-297.6c16-2.7 32.4 1 45.7 10.3 27.8 19.5 34.5 57.9 15 85.7-19.5 27.8-57.9 34.5-85.7 15-27.8-19.6-34.5-57.9-15-85.7 9.4-13.5 23.8-22.6 40-25.3zm217.2 78.7c-7.9-30.8 8.1-62.6 37.4-74.7 32.5-13.5 69.7 2 83.1 34.5 11 33.3-6.9 69.2-40.1 80.3-6.5 2.2-13.3 3.3-20.1 3.3-27.3 0-51.5-17.4-60.3-43.2zm335.8 164c-8 25.4-31.5 42.8-58.2 43.1-6.2 0-12.4-1-18.4-2.9q0 0-0.1 0c-32.3-10.2-50.3-44.7-40.2-77.1 10.2-32.4 44.7-50.4 77.1-40.2 32.4 10.2 50.4 44.7 40.2 77.1zm-4.6 188.4c27.7-19.1 65.6-12.2 84.7 15.5 19.1 27.7 12.2 65.6-15.5 84.7-10.4 7.8-23.1 12-36.1 12q-4.6 0-9.1-0.7c-16-2.3-30.4-10.9-40.1-23.9-20-27-14.3-65.1 12.7-85.1q1.7-1.3 3.4-2.5zm-52.2 247.8h0.7c31.6 2 56.9 27.1 59.2 58.7 2.5 35-23.7 65.4-58.7 67.9h-0.7c-16.6 0-32.6-6.5-44.4-18.1-25-24.5-25.4-64.6-1-89.6 11.9-12.1 28-18.9 44.9-18.9zm-207.9 285q-5.2 0.9-10.4 0.9c-12.7 0-25-4-35.3-11.3-27.8-19.6-34.4-58.1-14.8-85.9 19.8-27.7 58.3-34.1 86-14.4 27.7 19.8 34.1 58.2 14.4 86-9.5 13.2-23.9 22.1-39.9 24.7zm-219.6-82.1c10.6 32.1-6.7 66.8-38.8 77.6-6.2 2.1-12.8 3.2-19.4 3.2-26.4 0-50-16.8-58.4-41.9-10.8-32.2 6.5-67.1 38.7-77.9 32.2-10.8 67.1 6.5 77.9 38.7zm-212.8-139.9c-0.1 33.9-27.7 61.3-61.6 61.1-6.2 0.1-12.4-0.9-18.3-2.8-15.5-4.8-28.5-15.6-36-30-15.8-30.1-4.3-67.2 25.8-83 14.4-7.6 31.3-9.1 46.8-4.2 25.8 8 43.4 31.9 43.3 58.9zm-110.4-210.7c-27.3 20.3-65.8 14.5-86.1-12.8-9.6-13-13.8-29.3-11.4-45.4 4.9-33.6 36.1-56.9 69.7-52.1 33.6 4.9 56.9 36.1 52 69.8-2.3 16.2-11.1 30.8-24.2 40.5zm50.1-372.5c32.1 1.1 57.9 26.7 59.4 58.7 1.5 33.9-24.8 62.7-58.7 64.2h-0.7c-33.9 0.2-61.6-27.2-61.8-61.2-0.2-34 27.2-61.7 61.2-61.8h0.6z"/>
</svg>