<svg version="1.2" xmlns="http://www.w3.org/2000/svg" viewBox="0 0 1600 347" width="1600" height="347">
	<title>docusign-svg</title>
	<style>
		.s0 { fill: #ffffff } 
	</style>
	<path id="Layer" fill-rule="evenodd" class="s0" d="m0 5h116.1c73.7 0 121.1 59.1 121.1 140.1 0 44.5-15 83.7-43.9 107.9-20.5 16.9-47.1 26.5-81.8 26.5h-111.5zm107.6 226.5c52.5 0 72.9-31.9 72.9-86.4 0-54.5-23.9-92.5-71.3-92.5h-53.2v178.9zm239.3 53.7c-57.2 0-103.4-46.5-103.4-104 0-57.5 46.2-104 103.4-104 57.1 0 103.4 46.5 103.4 104 0 57.5-46.3 104-103.4 104zm50.1-104.2c0-35.6-22.4-64.3-50.1-64.3-27.8 0-50.2 28.7-50.2 64.3 0 35.6 22.4 64.3 50.2 64.3 27.7 0 50.1-28.7 50.1-64.3zm61.9 0.2c0-58.7 38.6-104 98.8-104 51.4 0 83 29.5 89.9 72.1h-51.3c-3.5-17.3-17-30.3-36.3-30.3-31.6 0-47.8 24.2-47.8 62.2 0 37.2 15 62.2 47.1 62.2 21.2 0 36.3-11.1 39.7-33.4h50.6c-3.5 41.8-36.3 75.2-89.2 75.2-62.5 0-101.5-45.3-101.5-104zm327.3 98.3v-23.1h-1.1c-13.6 18.1-29 28.5-56.8 28.5-44 0-68.7-28.1-68.7-71.1v-131.2h52.1v122.4c0 23.1 10.5 35.7 32.8 35.7 24.7 0 39.8-18.4 39.8-44.5v-113.7h52.5v197zm306.1-197h52.5v197h-52.5zm0-76.4h52.5v48.9h-52.5c0-0.1 0-48.9 0-48.9zm74.3 279.1h52.1c4.3 12.3 15.4 21.9 39.7 21.9 29.8 0 44-14.2 44-41.1v-21.5h-1.1c-11.6 13.1-26.7 23-51.7 23-44 0-87.2-34.5-87.2-94 0-58.7 35.5-96.4 85.6-96.4 24.7 0 42.9 9.6 54.8 26.1h0.8v-20.7h50.6v182c0 27.6-8.9 46.4-23.6 59.9-16.6 15.3-42.1 22.2-71.4 22.2-54 0-87.2-23-92.6-61.4zm138.5-112.9c0-29.5-20.4-53.3-45.7-53.3-25.3 0-45.7 23.8-45.7 53.3 0 29.5 20.4 53.4 45.7 53.4 25.3 0 45.7-23.9 45.7-53.4zm122.8-62.9h1.2c13.5-21.2 31.6-32.3 58.7-32.3 40.8 0 68.2 30.7 68.2 73.7v128.6h-52.4v-120.9c0-21.1-12.4-36.1-34.4-36.1-23.1 0-40.1 18.5-40.1 45.3v111.7h-52.5v-196.9h51.3zm-352.1 89.4c0 55.7-45.2 86.8-107.3 86.8-74.8 0-117.3-33-119.2-91h54.8c3.8 33 22.7 46.1 62.1 46.1 28.6 0 53.6-10 53.6-35.3 0-26.9-26.2-32.3-68.3-41.9-49.3-11.1-94.5-24.2-94.5-81.4 0-54.1 44.4-82.1 105.7-82.1 61 0 100.7 29.2 106.2 82.5h-53.8c-4.3-25.5-25.3-38.4-52.8-38.4-30.1 0-49.7 12.7-49.7 32.3 0 22.2 19.3 28.8 60.2 37.6 56.7 12.3 103 25.7 103 84.8zm503.2-79.9c-11.5 0-20.8-9.3-20.8-20.8 0-11.5 9.3-20.7 20.8-20.7 11.6 0 20.9 9.2 20.9 20.7 0 11.5-9.3 20.8-20.9 20.8zm17.6-20.8c0-9.7-7.8-17.5-17.6-17.5-9.7 0-17.6 7.8-17.6 17.5 0 9.7 7.9 17.5 17.6 17.5 9.8 0 17.6-7.8 17.6-17.5z"/>
	<path id="Layer" fill-rule="evenodd" class="s0" d="m1571.9 87.5h6.8c2.9 0 4.8 0 6.7 1.5q0.5 0.5 1 1.1 0.5 0.6 0.8 1.2 0.3 0.7 0.4 1.5 0.2 0.7 0.1 1.4 0.1 1-0.2 2-0.3 0.9-0.9 1.7-0.5 0.8-1.3 1.3-0.8 0.6-1.8 0.9l4.8 8.6h-4.6l-4.2-7.9h-3.6v7.9h-4zm4 3.4v6.7h1.4c1.4 0 1.9 0 2.6-0.1 0.9 0 3.8-0.2 3.8-3.3q0-0.4-0.1-0.8-0.1-0.5-0.4-0.8-0.2-0.4-0.5-0.7-0.3-0.3-0.7-0.5c-0.9-0.4-1.9-0.5-4.3-0.5z"/>
</svg>